#!OML:ASF H:\Terrain\Patient Classification 1\Terrain2\Thursday\justin.ASF
:FULLY-SPECIFIED
:DEGREES
2747
root -11.2502 17.1999 0.0397616 1735.45 76.7282 303.44
lowerback 18.3767 1.29522 12.0157
upperback 5.62261 4.54942 4.35755
thorax -3.62259 2.43641 -3.04348
lowerneck -14.7471 -3.25827 -9.73173
upperneck 36.7967 -2.01359 4.56857
head 15.6507 -1.10397 3.47027
rclavicle -8.2595e-014 -5.725e-014
rhumerus -26.4777 -3.10345 -83.5473
rradius 30.3392
rwrist -13.4979
rhand -21.369 9.16641
rfingers 7.12502
rthumb 5.01802 -20.7542
lclavicle -8.2595e-014 -5.725e-014
lhumerus -35.0299 16.6534 79.5916
lradius 23.3632
lwrist -5.41606
lhand -16.6606 23.2043
lfingers 7.12502
lthumb 9.56284 52.9673
rfemur 16.1406 -0.137501 35.3899
rtibia 19.304
rfoot -16.6702 0.159247
rtoes 1.05367
lfemur -82.0578 12.5167 -9.51096
ltibia 96.7489
lfoot -7.99029 -20.8499
ltoes 1.31804
2748
root -11.176 17.145 0.0370972 1734.82 76.7726 302.719
lowerback 18.3637 1.20904 11.7266
upperback 5.70624 4.3953 4.54017
thorax -3.58616 2.36859 -2.65908
lowerneck -14.9473 -3.13924 -9.43858
upperneck 36.7771 -1.75238 4.12587
head 15.6532 -1.01687 3.26948
rclavicle -9.10434e-014 -3.29983e-014
rhumerus -26.1855 -2.29474 -83.5807
rradius 30.5897
rwrist -14.3127
rhand -21.7431 9.26276
rfingers 7.12502
rthumb 4.65683 -20.6661
lclavicle -9.10434e-014 -3.29983e-014
lhumerus -34.8754 16.8554 79.9624
lradius 23.3706
lwrist -5.31043
lhand -16.9247 23.1483
lfingers 7.12502
lthumb 9.30798 52.9228
rfemur 15.8515 -0.104551 35.4039
rtibia 20.0699
rfoot -16.4981 0.0894133
rtoes -1.33593
lfemur -81.8513 12.3118 -9.77682
ltibia 96.1696
lfoot -9.38915 -20.2539
ltoes -6.0399
2749
root -11.1075 17.172 0.0511545 1735.45 77.2425 303.367
lowerback 18.4398 1.24938 10.9164
upperback 5.81322 4.29911 4.49425
thorax -3.58528 2.32277 -2.24886
lowerneck -15.1018 -3.10093 -9.48504
upperneck 36.6799 -1.71248 4.2026
head 15.6385 -0.999658 3.31331
rclavicle -1.21259e-014 -1.55052e-014
rhumerus -25.8486 -2.43587 -83.6305
rradius 30.6412
rwrist -13.9966
rhand -21.9138 9.19391
rfingers 7.12502
rthumb 4.49196 -20.7385
lclavicle -1.21259e-014 -1.55052e-014
lhumerus -34.6819 16.6117 80.2658
lradius 23.4668
lwrist -4.79975
lhand -17.1883 23.2544
lfingers 7.12502
lthumb 9.05367 53.0401
rfemur 15.6223 -0.0500105 34.9423
rtibia 21.0587
rfoot -16.512 -0.185442
rtoes -3.53165
lfemur -81.4177 12.075 -10.088
ltibia 95.4723
lfoot -7.10275 -20.9926
ltoes 4.72526
2750
root -11.0476 17.2105 0.05816 1735.32 77.1195 303.259
lowerback 18.705 1.27702 11.0398
upperback 5.80875 4.38702 4.34492
thorax -3.69674 2.36021 -2.50638
lowerneck -14.8386 -3.11876 -9.25868
upperneck 36.2509 -1.93597 4.36519
head 15.3779 -1.04002 3.28459
rclavicle 3.85642e-014 0
rhumerus -25.6703 -3.0108 -83.8397
rradius 30.7168
rwrist -13.6193
rhand -21.4629 8.90962
rfingers 7.12502
rthumb 4.92739 -21.0131
lclavicle 3.85642e-014 0
lhumerus -34.5481 15.928 80.3203
lradius 23.6977
lwrist -4.27554
lhand -17.333 23.3017
lfingers 7.12502
lthumb 8.91405 53.0934
rfemur 15.2266 -0.126916 34.9965
rtibia 22.1471
rfoot -16.4897 0.0354093
rtoes -3.80769
lfemur -81.0943 11.9738 -9.17927
ltibia 94.9414
lfoot -2.17425 -22.0223
ltoes 24.1784
2751
root -10.9806 17.1442 0.0463859 1733.93 76.4426 301.748
lowerback 18.9492 1.22376 11.785
upperback 5.70749 4.51813 4.46067
thorax -3.86678 2.41526 -2.83153
lowerneck -14.3747 -3.08733 -8.7566
upperneck 35.8864 -2.01593 4.1192
head 15.0833 -1.03559 3.06066
rclavicle 3.6477e-014 3.77691e-014
rhumerus -25.6807 -3.16998 -83.8716
rradius 30.947
rwrist -13.4883
rhand -20.2983 8.745
rfingers 7.12502
rthumb 6.05182 -21.1486
lclavicle 3.6477e-014 3.77691e-014
lhumerus -34.4884 15.3486 80.5522
lradius 23.8476
lwrist -3.73664
lhand -17.7866 23.2115
lfingers 7.12502
lthumb 8.47627 53.0213
rfemur 15.3128 -0.244888 35.6572
rtibia 22.1314
rfoot -16.1211 0.609673
rtoes -2.2845
lfemur -81.0875 12.2237 -9.21631
ltibia 94.6531
lfoot -5.05226 -21.628
ltoes 11.8981
2752
root -10.9043 17.1089 0.0354798 1732.91 76.2887 300.614
lowerback 19.1084 1.17088 11.9765
upperback 5.6518 4.53247 4.60368
thorax -4.00651 2.41449 -2.7966
lowerneck -14.3053 -3.13175 -8.79354
upperneck 35.8971 -2.07446 4.12608
head 15.0788 -1.06323 3.06093
rclavicle 2.08724e-014 4.45278e-014
rhumerus -25.6708 -3.25992 -83.7197
rradius 31.1071
rwrist -13.088
rhand -19.8133 8.8317
rfingers 7.12502
rthumb 6.5201 -21.0479
lclavicle 2.08724e-014 4.45278e-014
lhumerus -34.4276 15.2879 80.8388
lradius 23.9469
lwrist -3.89114
lhand -17.1873 23.1276
lfingers 7.12502
lthumb 9.05465 52.9132
rfemur 15.0524 -0.22654 35.8773
rtibia 23.0249
rfoot -16.4194 0.791159
rtoes -0.787885
lfemur -80.8225 12.0947 -9.23321
ltibia 94.2383
lfoot -5.45809 -21.2144
ltoes 8.07983
